# Blender 3.4.1
# www.blender.org
mtllib wall_test.onj.mtl
o Plane
v 3.461642 -0.279975 -9.105721
v 4.176837 -2.028021 -8.447822
v -0.485885 0.874023 7.558402
v 0.485885 -0.874023 7.558402
v 3.975139 5.528729 -8.823456
v 0.083132 6.682728 7.418498
v 2.144730 8.588287 -10.366814
v -2.308870 9.742286 7.521839
v -0.348035 8.892466 -12.500785
v -5.588199 10.046463 7.638929
v -4.596231 9.821179 -15.896714
v -11.013837 10.975177 8.015702
v -7.857656 12.361376 -18.573540
v -15.226398 13.515373 8.253659
v -8.693466 16.878132 -19.127394
v -16.216496 18.032127 8.411890
v -0.485885 0.874023 -2.267521
v 0.505090 -1.548034 -2.317694
v 0.083132 6.682728 -2.407425
v -2.308870 9.742286 -2.304084
v -5.588199 10.046463 -2.186994
v -11.013837 10.975177 -1.810220
v -15.226398 13.515373 -1.572264
v -16.216496 18.032127 -1.414033
v 5.845980 0.607213 17.249535
v 6.817749 -1.140833 17.249535
v 6.414997 6.415918 17.109631
v -1.141567 18.539885 7.199706
v 5.190297 18.273071 16.890839
vn -0.9046 -0.4260 0.0137
vn -0.9952 0.0975 -0.0000
vn -0.7878 -0.6159 -0.0000
vn -0.0924 -0.9957 -0.0000
vn -0.1687 -0.9857 -0.0000
vn -0.5164 -0.8564 -0.0000
vn -0.9768 -0.2141 -0.0000
vn -0.9053 -0.1994 -0.3751
vn -0.5165 -0.8399 -0.1667
vn -0.1893 -0.9819 0.0024
vn -0.1248 -0.9904 0.0585
vn -0.7381 -0.5874 -0.3318
vn -0.8509 0.0856 -0.5182
vn -0.8130 -0.3950 -0.4279
vn -0.8322 0.0947 0.5463
vn -0.7633 -0.4244 0.4871
vn -0.8357 -0.0763 0.5439
vn 0.0767 0.0263 0.9967
vn 0.0721 0.0138 0.9973
vn 0.0683 -0.0056 0.9976
vn 0.0407 -0.0261 0.9988
vt 0.000000 0.000000
vt 1.000000 0.000000
vt 0.000000 1.000000
vt 1.000000 1.000000
vt 0.000000 0.000000
vt 0.000000 1.000000
vt 0.000000 0.000000
vt 0.000000 1.000000
vt 0.000000 0.000000
vt 0.000000 1.000000
vt 0.000000 0.000000
vt 0.000000 1.000000
vt 0.000000 0.000000
vt 0.000000 1.000000
vt 0.000000 0.000000
vt 0.000000 0.000000
vt 0.000000 1.000000
vt 0.000000 0.350000
vt 1.000000 0.350000
vt 0.000000 0.350000
vt 0.000000 0.350000
vt 0.000000 0.350000
vt 0.000000 0.350000
vt 0.000000 0.350000
vt 0.000000 0.350000
vt 0.000000 1.000000
vt 1.000000 1.000000
vt 0.000000 1.000000
vt 0.000000 1.000000
vt 0.000000 1.000000
s 0
f 17/18/1 18/19/1 4/4/1 3/3/1
f 17/18/2 3/3/2 6/6/2 19/20/2
f 19/20/3 6/6/3 8/8/3 20/21/3
f 20/21/4 8/8/4 10/10/4 21/22/4
f 21/22/5 10/10/5 12/12/5 22/23/5
f 22/23/6 12/12/6 14/14/6 23/24/6
f 23/24/7 14/14/7 16/17/7 24/25/7
f 13/13/8 23/24/8 24/25/8 15/15/8
f 11/11/9 22/23/9 23/24/9 13/13/9
f 9/9/10 21/22/10 22/23/10 11/11/10
f 7/7/11 20/21/11 21/22/11 9/9/11
f 5/5/12 19/20/12 20/21/12 7/7/12
f 1/1/13 17/18/13 19/20/13 5/5/13
f 1/1/14 2/2/14 18/19/14 17/18/14
f 6/6/15 3/3/15 25/26/15 27/28/15
f 3/3/16 4/4/16 26/27/16 25/26/16
f 6/6/17 27/28/17 29/30/17 28/29/17
f 6/6/18 28/29/18 8/8/18
f 8/8/19 28/29/19 16/16/19 10/10/19
f 12/12/20 10/10/20 16/16/20
f 14/14/21 12/12/21 16/17/21
